<svg id="Layer_1" xmlns="http://www.w3.org/2000/svg" width="108" height="46" viewBox="0 0 108 46"><style>.st0{fill:#00a3e0}</style><path class="st0" d="M60.4 45.3c-.1-.1-.2-.3-.2-.5 0-.3.3-.6.6-.6.2 0 .3.1.4.1.4.3.9.5 1.4.5.5 0 .8-.2.8-.5s-.2-.5-1.1-.7c-1.1-.3-1.9-.6-1.9-1.7 0-1 .8-1.7 2-1.7.7 0 1.3.2 1.8.5.1.1.3.2.3.5s-.3.6-.6.6c-.1 0-.2 0-.3-.1-.4-.2-.8-.4-1.2-.4-.5 0-.7.2-.7.5 0 .4.2.5 1.2.7 1.1.3 1.8.7 1.8 1.7 0 1.1-.8 1.7-2.1 1.7-.8.1-1.6-.1-2.2-.6zM68.5 43.8l-1.8-2.5c-.1-.1-.2-.3-.2-.4 0-.3.3-.6.6-.6s.5.2.6.4l1.4 2 1.4-2c.2-.2.3-.4.6-.4.4 0 .6.3.6.6 0 .2-.1.3-.2.4l-1.8 2.4v1.6c0 .3-.3.6-.6.6s-.6-.3-.6-.6v-1.5zM73.9 45.3c-.1-.1-.2-.3-.2-.5 0-.3.3-.6.6-.6.2 0 .3.1.4.1.4.3.9.5 1.4.5.5 0 .8-.2.8-.5s-.2-.5-1.1-.7c-1.1-.3-1.9-.6-1.9-1.7 0-1 .8-1.7 2-1.7.7 0 1.3.2 1.8.5.1.1.3.2.3.5s-.3.6-.6.6c-.1 0-.2 0-.3-.1-.4-.2-.8-.4-1.2-.4-.5 0-.7.2-.7.5 0 .4.2.5 1.2.7 1.1.3 1.8.7 1.8 1.7 0 1.1-.8 1.7-2.1 1.7-.8.1-1.6-.1-2.2-.6zM81.9 41.5h-1.2c-.3 0-.6-.3-.6-.6s.3-.6.6-.6h3.6c.3 0 .6.3.6.6s-.3.6-.6.6h-1.2v3.9c0 .3-.3.6-.6.6s-.6-.3-.6-.6v-3.9zM87.4 45.3v-4.4c0-.3.3-.6.6-.6h3.1c.3 0 .6.2.6.6 0 .3-.2.5-.6.5h-2.5v1.1h2.1c.3 0 .6.2.6.6s-.2.5-.6.5h-2.1v1.2h2.5c.3 0 .6.2.6.6 0 .3-.2.5-.6.5H88c-.3 0-.6-.3-.6-.6zM94.4 40.9c0-.3.3-.6.6-.6h.1c.3 0 .4.1.6.3l1.5 2.4 1.5-2.4c.1-.2.3-.3.6-.3h.1c.3 0 .6.3.6.6v4.4c0 .3-.3.6-.6.6s-.6-.3-.6-.6v-2.8l-1.1 1.7c-.1.2-.3.3-.5.3s-.4-.1-.5-.3l-1.1-1.6v2.8c0 .3-.3.6-.6.6s-.6-.3-.6-.6v-4.5zM102.8 45.3c-.1-.1-.2-.3-.2-.5 0-.3.3-.6.6-.6.2 0 .3.1.4.1.4.3.9.5 1.4.5.5 0 .8-.2.8-.5s-.2-.5-1.1-.7c-1.1-.3-1.9-.6-1.9-1.7 0-1 .8-1.7 2-1.7.7 0 1.3.2 1.8.5.1.1.3.2.3.5s-.3.6-.6.6c-.1 0-.2 0-.3-.1-.4-.2-.8-.4-1.2-.4-.5 0-.7.2-.7.5 0 .4.2.5 1.2.7 1.1.3 1.8.7 1.8 1.7 0 1.1-.8 1.7-2.1 1.7-.8.1-1.5-.1-2.2-.6zM.1 5c0-1.9 1.5-3.4 3.4-3.4h10.8c3.9 0 7 1.1 9 3.1C25 6.4 26 8.9 26 11.8v.1c0 4.9-2.4 7.9-6.2 9.4l4.7 5.8c.7.8 1.1 1.6 1.1 2.6 0 1.9-1.6 3.1-3.2 3.1S19.8 32 19 31l-6.6-8.4H6.9v6.8c0 1.9-1.5 3.4-3.4 3.4S.1 31.3.1 29.4V5zm13.7 11.7c3.3 0 5.2-1.8 5.2-4.4v-.1c0-2.9-2-4.4-5.4-4.4H6.9v8.9h6.9zM40 33.1c-7.1 0-12.4-5-12.4-12.3v-.1c0-6.8 4.8-12.4 11.7-12.4 7.9 0 11.4 6.5 11.4 11.4 0 1.9-1.4 3.2-3.1 3.2H34.3c.7 3.1 2.8 4.7 5.8 4.7 1.9 0 3.4-.6 4.8-1.6.5-.4.9-.5 1.6-.5 1.5 0 2.6 1.2 2.6 2.7 0 .9-.4 1.6-.9 2-2 1.8-4.7 2.9-8.2 2.9zm4.4-14.2c-.4-3-2.2-5.1-5-5.1s-4.6 2-5.1 5.1h10.1zM63 33.1h-.4c-1.8 0-3.1-1.2-3.8-2.9l-7.3-16.8c-.2-.4-.4-1-.4-1.6 0-1.6 1.5-3.1 3.3-3.1 1.8 0 2.8 1 3.3 2.4l5.1 13.8L68 11c.4-1.2 1.4-2.3 3.1-2.3 1.8 0 3.2 1.4 3.2 3.2 0 .6-.2 1.3-.4 1.6l-7.3 16.8c-.5 1.6-1.7 2.8-3.6 2.8zM87.2 33.1c-7.1 0-12.4-5-12.4-12.3v-.1c0-6.8 4.8-12.4 11.7-12.4 7.9 0 11.4 6.5 11.4 11.4 0 1.9-1.4 3.2-3.1 3.2H81.4c.7 3.1 2.8 4.7 5.8 4.7 1.9 0 3.4-.6 4.8-1.6.5-.4.9-.5 1.6-.5 1.5 0 2.6 1.2 2.6 2.7 0 .9-.4 1.6-.9 2-2 1.8-4.7 2.9-8.1 2.9zm4.3-14.2c-.4-3-2.2-5.1-5-5.1s-4.6 2-5.1 5.1h10.1zM101.2 3.4c0-1.9 1.5-3.4 3.4-3.4s3.4 1.5 3.4 3.4v26.1c0 1.9-1.5 3.4-3.4 3.4s-3.4-1.5-3.4-3.4V3.4z"/></svg>